<svg xmlns="http://www.w3.org/2000/svg">
	<symbol id="close" viewBox="0 0 24 24">
		<path d="M18 6L6 18M6 6l12 12" stroke-linecap="round"/>
	</symbol>
	<symbol id="ok" viewBox="0 0 24 24">
		<path d="M20 6L9 17l-5-5" stroke-linecap="round" stroke-linejoin="round"/>
	</symbol>
	<symbol id="save" viewBox="0 0 24 24">
		<path d="M19 21H5a2 2 0 01-2-2V5a2 2 0 012-2h11l5 5v11a2 2 0 01-2 2z" stroke-linejoin="round"/>
		<path d="M17 21v-8H7v8M7 3v5h8" stroke-linecap="round" stroke-linejoin="round"/>
	</symbol>
	<symbol id="delete" viewBox="0 0 24 24">
		<path d="M3 6h18M8 6V4a1 1 0 011-1h6a1 1 0 011 1v2m3 0v14a2 2 0 01-2 2H7a2 2 0 01-2-2V6h14z" stroke-linecap="round" stroke-linejoin="round"/>
		<path d="M10 11v6M14 11v6" stroke-linecap="round"/>
	</symbol>
	<symbol id="help" viewBox="0 0 24 24">
		<circle cx="12" cy="12" r="10"/>
		<path d="M9.09 9a3 3 0 015.83 1c0 2-3 3-3 3M12 17h.01" stroke-linecap="round" stroke-linejoin="round"/>
	</symbol>
	<symbol id="info" viewBox="0 0 24 24">
		<circle cx="12" cy="12" r="10"/>
		<path d="M12 16v-4M12 8h.01" stroke-linecap="round"/>
	</symbol>
	<symbol id="chevron-up" viewBox="0 0 24 24">
		<path d="M18 15l-6-6-6 6" stroke-linecap="round" stroke-linejoin="round"/>
	</symbol>
	<symbol id="triangle-up" viewBox="0 0 24 24">
		<path d="M12 6l8 12H4z" stroke-linejoin="round"/>
	</symbol>
	<symbol id="spinner" viewBox="0 0 24 24">
		<path d="M12 2v4M12 18v4M4.93 4.93l2.83 2.83M16.24 16.24l2.83 2.83M2 12h4M18 12h4M4.93 19.07l2.83-2.83M16.24 7.76l2.83-2.83" stroke-linecap="round"/>
	</symbol>
	<symbol id="chevron-left" viewBox="0 0 24 24">
		<path d="M15 18l-6-6 6-6" stroke-linecap="round" stroke-linejoin="round"/>
	</symbol>
	<symbol id="arrow-left" viewBox="0 0 24 24">
		<path d="M19 12H5M12 19l-7-7 7-7" stroke-linecap="round" stroke-linejoin="round"/>
	</symbol>
	<symbol id="chevron-right" viewBox="0 0 24 24">
		<path d="M9 18l6-6-6-6" stroke-linecap="round" stroke-linejoin="round"/>
	</symbol>
	<symbol id="plus" viewBox="0 0 24 24">
		<path d="M12 5v14M5 12h14" stroke-linecap="round"/>
	</symbol>
	<symbol id="grid" viewBox="0 0 24 24">
		<rect x="3" y="3" width="7" height="7" rx="1" stroke-linejoin="round"/>
		<rect x="14" y="3" width="7" height="7" rx="1" stroke-linejoin="round"/>
		<rect x="3" y="14" width="7" height="7" rx="1" stroke-linejoin="round"/>
		<rect x="14" y="14" width="7" height="7" rx="1" stroke-linejoin="round"/>
	</symbol>
	<symbol id="list" viewBox="0 0 24 24">
		<path d="M8 6h13M8 12h13M8 18h13M3 6h.01M3 12h.01M3 18h.01" stroke-linecap="round"/>
	</symbol>
	<symbol id="edit" viewBox="0 0 24 24">
		<path d="M11 4H4a2 2 0 00-2 2v14a2 2 0 002 2h14a2 2 0 002-2v-7" stroke-linecap="round" stroke-linejoin="round"/>
		<path d="M18.5 2.5a2.121 2.121 0 013 3L12 15l-4 1 1-4 9.5-9.5z" stroke-linecap="round" stroke-linejoin="round"/>
	</symbol>
	<symbol id="users" viewBox="0 0 24 24">
		<path d="M17 21v-2a4 4 0 00-4-4H5a4 4 0 00-4 4v2" stroke-linecap="round" stroke-linejoin="round"/>
		<circle cx="9" cy="7" r="4"/>
		<path d="M23 21v-2a4 4 0 00-3-3.87M16 3.13a4 4 0 010 7.75" stroke-linecap="round" stroke-linejoin="round"/>
	</symbol>
	<symbol id="clock" viewBox="0 0 24 24">
		<circle cx="12" cy="12" r="10"/>
		<path d="M12 6v6l4 2" stroke-linecap="round"/>
	</symbol>
	<symbol id="phone" viewBox="0 0 24 24">
		<path d="M22 16.92v3a2 2 0 01-2.18 2 19.79 19.79 0 01-8.63-3.07 19.5 19.5 0 01-6-6 19.79 19.79 0 01-3.07-8.67A2 2 0 014.11 2h3a2 2 0 012 1.72 12.84 12.84 0 00.7 2.81 2 2 0 01-.45 2.11L8.09 9.91a16 16 0 006 6l1.27-1.27a2 2 0 012.11-.45 12.84 12.84 0 002.81.7A2 2 0 0122 16.92z" stroke-linecap="round" stroke-linejoin="round"/>
	</symbol>
	<symbol id="block" viewBox="0 0 24 24">
		<circle cx="12" cy="12" r="10"/>
		<path d="M4.93 4.93l14.14 14.14" stroke-linecap="round"/>
	</symbol>
	<symbol id="calendar" viewBox="0 0 24 24">
		<rect x="3" y="4" width="18" height="18" rx="2" stroke-linejoin="round"/>
		<path d="M16 2v4M8 2v4M3 10h18" stroke-linecap="round"/>
	</symbol>
	<symbol id="calendar-today" viewBox="0 0 24 24">
		<rect x="3" y="4" width="18" height="18" rx="2" stroke-linejoin="round"/>
		<path d="M16 2v4M8 2v4M3 10h18" stroke-linecap="round"/>
		<circle cx="12" cy="16" r="2" fill="currentColor" stroke="none"/>
	</symbol>
</svg>
